<svg width="763" height="704" viewBox="0 0 763 704" fill="none" xmlns="http://www.w3.org/2000/svg">
<g clip-path="url(#clip0_3_19)">
<path d="M176.115 0H14.8003C7.57107 0 1.71063 5.87572 1.71063 13.1238V689.936C1.71063 697.184 7.57107 703.06 14.8003 703.06H176.115C183.345 703.06 189.205 697.184 189.205 689.936V13.1238C189.205 5.87572 183.345 0 176.115 0Z" fill="#363B16"/>
<path d="M380.485 131.589H219.169C211.94 131.589 206.08 137.465 206.08 144.713V689.937C206.08 697.185 211.94 703.06 219.169 703.06H380.485C387.714 703.06 393.574 697.185 393.574 689.937V144.713C393.574 137.465 387.714 131.589 380.485 131.589Z" fill="#363B16"/>
<path d="M575.353 135.862L422.827 188.518C415.992 190.877 412.358 198.346 414.712 205.199L581.13 689.771C583.483 696.624 590.932 700.267 597.768 697.907L750.294 645.251C757.13 642.891 760.763 635.423 758.409 628.57L591.992 143.998C589.638 137.145 582.189 133.502 575.353 135.862Z" fill="#363B16"/>
</g>
<defs>
<clipPath id="clip0_3_19">
<rect width="762.94" height="703.06" fill="white"/>
</clipPath>
</defs>
</svg>
